<svg width="78" height="86" viewBox="0 0 78 86" fill="none" xmlns="http://www.w3.org/2000/svg">
<path d="M70.2724 42.188C69.536 42.188 68.939 42.7843 68.939 43.5213C68.939 44.2583 69.536 44.8547 70.2724 44.8547H74.2724C75.0087 44.8547 75.6057 44.2583 75.6057 43.5213C75.6057 42.7843 75.0087 42.188 74.2724 42.188H70.2724Z" fill="black"/>
<path d="M60.1187 20.3417C60.4597 20.3417 60.801 20.2113 61.0614 19.951L63.8894 17.123C64.41 16.6023 64.41 15.7583 63.8894 15.2377C63.3687 14.717 62.5247 14.717 62.004 15.2377L59.176 18.0657C58.6554 18.5863 58.6554 19.4303 59.176 19.951C59.4364 20.2113 59.7777 20.3417 60.1187 20.3417Z" fill="black"/>
<path d="M61.0614 67.0917C60.5407 66.571 59.6967 66.571 59.176 67.0917C58.6554 67.6123 58.6554 68.4563 59.176 68.977L62.004 71.805C62.2644 72.0653 62.6057 72.1957 62.9467 72.1957C63.2877 72.1957 63.629 72.0653 63.8894 71.805C64.41 71.2843 64.41 70.4403 63.8894 69.9197L61.0614 67.0917Z" fill="black"/>
<path d="M50.9737 74.624C50.6737 73.952 49.8877 73.6487 49.212 73.9507C48.54 74.2513 48.2387 75.0407 48.5387 75.7123L52.348 84.233C52.57 84.7277 53.0564 85.022 53.566 85.022C53.7477 85.022 53.9327 84.9857 54.1097 84.906C54.7817 84.6053 55.083 83.816 54.783 83.1443L50.9737 74.624Z" fill="black"/>
<path d="M47.2874 12.301C47.4417 12.3583 47.5994 12.3857 47.7547 12.3857C48.2944 12.3857 48.803 12.055 49.0034 11.5197L52.274 2.77867C52.5324 2.08867 52.1824 1.32034 51.4927 1.06267C50.8054 0.803675 50.0357 1.15434 49.7767 1.84401L46.506 10.585C46.2477 11.275 46.598 12.0433 47.2874 12.301V12.301Z" fill="black"/>
<path d="M67.0887 30.3417C67.2757 30.3417 67.4657 30.3027 67.646 30.2193L76.122 26.3117C76.7913 26.003 77.083 25.2113 76.775 24.542C76.467 23.874 75.6733 23.5823 75.006 23.8897L66.53 27.7973C65.8607 28.106 65.569 28.8977 65.877 29.567C66.1023 30.0537 66.585 30.3417 67.0887 30.3417V30.3417Z" fill="black"/>
<path d="M76.275 60.3677L67.7647 56.5357C67.0913 56.2363 66.3037 56.5317 66.0017 57.205C65.699 57.8757 65.9983 58.666 66.6697 58.968L75.18 62.8C75.3577 62.8793 75.544 62.9173 75.727 62.9173C76.2354 62.9173 76.721 62.6257 76.943 62.131C77.2457 61.46 76.9464 60.6697 76.275 60.3677Z" fill="black"/>
<path d="M36.939 11.555V8.90901C36.939 8.89968 36.9337 8.89134 36.9334 8.88168C36.9337 8.87201 36.939 8.86401 36.939 8.85401V4.85401C36.939 4.11701 36.342 3.52068 35.6057 3.52068C34.8694 3.52068 34.2724 4.11701 34.2724 4.85401V7.67368C27.3294 8.18101 20.7717 10.614 15.2424 14.7953C14.7247 15.1873 14.564 15.8943 14.8614 16.471C15.3554 17.4267 15.6054 18.4527 15.6054 19.5203C15.6054 23.196 12.6144 26.187 8.93869 26.187C8.22836 26.187 7.51736 26.0697 6.82469 25.838C6.20636 25.6297 5.53502 25.898 5.22769 26.4697C2.42169 31.6793 0.93869 37.575 0.93869 43.5203C0.93869 62.5217 15.4794 78.0394 34.272 79.4054V82.187C34.272 82.924 34.869 83.5204 35.6054 83.5204C36.3417 83.5204 36.9387 82.924 36.9387 82.187V78.187C36.9387 78.181 36.9354 78.176 36.9354 78.17C36.9354 78.164 36.9387 78.159 36.9387 78.153V75.4864C53.9667 74.784 67.6054 60.7177 67.6054 43.5203C67.6054 26.323 53.967 12.2573 36.939 11.555V11.555ZM3.60569 43.5213C3.60569 38.3677 4.80869 33.2557 7.09336 28.6673C7.70336 28.7923 8.32069 28.8547 8.93902 28.8547C14.0854 28.8547 18.2724 24.6673 18.2724 19.5213C18.2724 18.4093 18.0797 17.3313 17.698 16.3027C22.58 12.847 28.2644 10.796 34.2724 10.3223V76.7417C16.9664 75.3834 3.60569 61.0487 3.60569 43.5213ZM36.939 72.8207V14.2217C52.4967 14.9217 64.939 27.7937 64.939 43.521C64.939 59.2484 52.4967 72.1207 36.939 72.8207Z" fill="black"/>
<path d="M19.6057 42.188C16.853 42.188 14.327 43.576 12.849 45.903C12.4544 46.524 12.638 47.3483 13.2597 47.743C13.8794 48.14 14.705 47.954 15.1 47.333C16.0857 45.781 17.77 44.855 19.6054 44.855C22.546 44.855 24.9387 47.247 24.9387 50.1883C24.9387 53.1297 22.546 55.5217 19.6054 55.5217C18.408 55.5217 17.2774 55.1337 16.3347 54.402C15.752 53.9477 14.9154 54.053 14.4637 54.6363C14.012 55.217 14.1167 56.0543 14.698 56.506C16.1134 57.6063 17.81 58.1883 19.6057 58.1883C24.017 58.1883 27.6057 54.5997 27.6057 50.1883C27.6057 45.777 24.017 42.188 19.6057 42.188V42.188Z" fill="black"/>
<path d="M14.555 51.9054C14.3677 51.356 14.2724 50.7777 14.2724 50.188C14.2724 49.451 13.6754 48.8547 12.939 48.8547C12.2027 48.8547 11.6057 49.451 11.6057 50.188C11.6057 51.072 11.749 51.9394 12.0314 52.7674C12.22 53.3207 12.7384 53.6697 13.293 53.6697C13.4357 53.6697 13.5807 53.6464 13.724 53.598C14.4207 53.3597 14.7934 52.602 14.555 51.9054Z" fill="black"/>
</svg>
